<svg width="27" height="26" viewBox="0 0 27 26" fill="none" xmlns="http://www.w3.org/2000/svg">
<g clip-path="url(#clip0_36_5034)">
<path d="M3.85226 19.6805L3.86752 19.4956L3.75852 19.3455C2.77193 17.987 2.19995 16.3658 2.19995 14.625C2.19995 9.91523 6.40818 6.01932 11.7 6.01932C16.9917 6.01932 21.1999 9.91523 21.1999 14.625C21.1999 19.3348 16.9917 23.2307 11.7 23.2307C10.2487 23.2307 8.87601 22.9343 7.64748 22.4086L7.40977 22.3068L7.18935 22.442C6.08992 23.1163 4.7074 23.5796 3.57789 23.8751C3.3004 23.9477 3.04026 24.0097 2.80596 24.0618C3.04962 23.5859 3.23518 23.0614 3.3785 22.538C3.6458 21.5618 3.78229 20.5278 3.85226 19.6805Z" stroke="#72777A"/>
<path d="M5.25839 6.95288L4.35875 8.64636L5.97075 7.60777C7.547 6.59223 9.48438 5.98886 11.586 5.98886C16.934 5.98886 21.1723 9.85689 21.1723 14.515C21.1723 16.3026 20.552 17.9639 19.4867 19.3407L19.109 19.8289L19.665 20.097C20.8397 20.6635 22.1325 21.0431 23.1214 21.2805C23.618 21.3998 24.0427 21.4843 24.3441 21.5391C24.4948 21.5666 24.615 21.5866 24.6981 21.5999C24.7396 21.6065 24.7719 21.6115 24.7942 21.6148L24.82 21.6186L24.8271 21.6197L24.8291 21.62L24.8298 21.62L24.83 21.6201C24.8301 21.6201 24.8301 21.6201 24.9 21.125L24.8301 21.6201L26.3133 21.8292L25.2532 20.7711C24.778 20.2968 24.4248 19.5333 24.175 18.6365C23.9467 17.8172 23.8179 16.936 23.7462 16.1698C24.79 14.6961 25.4 12.9426 25.4 11.0574C25.4 5.74546 20.6066 1.53125 14.8136 1.53125C10.6202 1.53125 6.97101 3.72907 5.25839 6.95288Z" stroke="#72777A"/>
<path d="M6.50005 15.8438C7.16279 15.8438 7.70005 15.2981 7.70005 14.625C7.70005 13.9519 7.16279 13.4062 6.50005 13.4062C5.83731 13.4062 5.30005 13.9519 5.30005 14.625C5.30005 15.2981 5.83731 15.8438 6.50005 15.8438Z" fill="#72777A"/>
<path d="M11.7 15.8438C12.3627 15.8438 12.9 15.2981 12.9 14.625C12.9 13.9519 12.3627 13.4062 11.7 13.4062C11.0373 13.4062 10.5 13.9519 10.5 14.625C10.5 15.2981 11.0373 15.8438 11.7 15.8438Z" fill="#72777A"/>
<path d="M16.9 15.8438C17.5627 15.8438 18.1 15.2981 18.1 14.625C18.1 13.9519 17.5627 13.4062 16.9 13.4062C16.2372 13.4062 15.7 13.9519 15.7 14.625C15.7 15.2981 16.2372 15.8438 16.9 15.8438Z" fill="#72777A"/>
</g>
<defs>
<clipPath id="clip0_36_5034">
<rect width="26" height="26" fill="white" transform="translate(0.5)"/>
</clipPath>
</defs>
</svg>
